name pl12_filtered_grf.mot
datacolumns 37
datarows 11
range 1.471000 1.476000
endheader
time	1_ground_force_vx	1_ground_force_vy	1_ground_force_vz	1_ground_force_px	1_ground_force_py	1_ground_force_pz	1_ground_torque_x	1_ground_torque_y	1_ground_torque_z	2_ground_force_vx	2_ground_force_vy	2_ground_force_vz	2_ground_force_px	2_ground_force_py	2_ground_force_pz	2_ground_torque_x	2_ground_torque_y	2_ground_torque_z	3_ground_force_vx	3_ground_force_vy	3_ground_force_vz	3_ground_force_px	3_ground_force_py	3_ground_force_pz	3_ground_torque_x	3_ground_torque_y	3_ground_torque_z	4_ground_force_vx	4_ground_force_vy	4_ground_force_vz	4_ground_force_px	4_ground_force_py	4_ground_force_pz	4_ground_torque_x	4_ground_torque_y	4_ground_torque_z
            1.471000	          -24.684799	          303.209653	           12.827927	            0.095317	            0.000000	            0.262296	           -0.536167	            6.585872	            0.278629	           31.025012	          273.950986	            0.049871	           -0.163735	            0.000000	            0.262766	           -0.067920	           -0.599732	           -0.000109	           21.315015	            2.000601	            0.311146	            0.375826	            1.311107	            1.913955	           -0.104026	           -0.009764	           -0.001519	          -17.355411	           -0.610624	            1.761268	           -0.265051	            1.309978	            1.924869	            0.000070	            0.000002	           -0.000007
            1.471500	          -24.794117	          302.440075	           12.698742	            0.095328	            0.000000	            0.262273	           -0.538627	            6.570202	            0.275867	           31.016462	          273.157432	            0.040406	           -0.163733	            0.000000	            0.262748	           -0.067835	           -0.597410	           -0.000088	           21.299190	            2.003489	            0.303375	            0.375830	            1.311109	            1.913955	           -0.104085	           -0.009791	           -0.001483	          -17.333765	           -0.633958	            1.763193	           -0.265047	            1.309979	            1.924869	            0.000233	            0.000009	           -0.000024
            1.472000	          -24.903937	          301.672021	           12.566748	            0.095342	            0.000000	            0.262252	           -0.541110	            6.554696	            0.273049	           31.006284	          272.362218	            0.032196	           -0.163730	            0.000000	            0.262730	           -0.067728	           -0.594930	           -0.000070	           21.283284	            2.006241	            0.296148	            0.375834	            1.311111	            1.913956	           -0.104156	           -0.009818	           -0.001449	          -17.313963	           -0.656649	            1.763907	           -0.265043	            1.309979	            1.924868	            0.000409	            0.000016	           -0.000042
            1.472500	          -25.014242	          300.905577	           12.431914	            0.095358	            0.000000	            0.262234	           -0.543615	            6.539345	            0.270173	           30.994602	          271.565431	            0.025116	           -0.163725	            0.000000	            0.262710	           -0.067601	           -0.592301	           -0.000055	           21.267320	            2.008863	            0.289573	            0.375838	            1.311113	            1.913956	           -0.104240	           -0.009846	           -0.001419	          -17.296092	           -0.678570	            1.763375	           -0.265039	            1.309979	            1.924868	            0.000595	            0.000023	           -0.000061
            1.473000	          -25.125016	          300.140819	           12.294221	            0.095376	            0.000000	            0.262219	           -0.546141	            6.524140	            0.267239	           30.981538	          270.767184	            0.019031	           -0.163720	            0.000000	            0.262688	           -0.067455	           -0.589535	           -0.000041	           21.251316	            2.011362	            0.284036	            0.375842	            1.311115	            1.913957	           -0.104337	           -0.009875	           -0.001395	          -17.280180	           -0.699589	            1.762010	           -0.265036	            1.309979	            1.924868	            0.000788	            0.000032	           -0.000080
            1.473500	          -25.236244	          299.377813	           12.153658	            0.095396	            0.000000	            0.262206	           -0.548686	            6.509068	            0.264245	           30.967214	          269.967610	            0.013794	           -0.163713	            0.000000	            0.262666	           -0.067293	           -0.586647	           -0.000030	           21.235293	            2.013744	            0.279354	            0.375846	            1.311116	            1.913957	           -0.104449	           -0.009905	           -0.001374	          -17.266329	           -0.719610	            1.759346	           -0.265032	            1.309978	            1.924868	            0.000985	            0.000041	           -0.000100
            1.474000	          -25.347913	          298.616616	           12.010224	            0.095419	            0.000000	            0.262197	           -0.551249	            6.494115	            0.261190	           30.951749	          269.166866	            0.009248	           -0.163704	            0.000000	            0.262642	           -0.067115	           -0.583654	           -0.000020	           21.219265	            2.016012	            0.275621	            0.375851	            1.311118	            1.913957	           -0.104577	           -0.009936	           -0.001358	          -17.254581	           -0.738529	            1.755368	           -0.265029	            1.309978	            1.924868	            0.001183	            0.000051	           -0.000120
            1.474500	          -25.460008	          297.857278	           11.863929	            0.095443	            0.000000	            0.262191	           -0.553829	            6.479262	            0.258075	           30.935258	          268.365125	            0.005232	           -0.163695	            0.000000	            0.262618	           -0.066925	           -0.580576	           -0.000011	           21.203247	            2.018166	            0.272923	            0.375855	            1.311119	            1.913957	           -0.104721	           -0.009968	           -0.001348	          -17.244965	           -0.756252	            1.750068	           -0.265026	            1.309978	            1.924868	            0.001381	            0.000061	           -0.000140
            1.475000	          -25.572514	          297.099837	           11.714794	            0.095470	            0.000000	            0.262187	           -0.556423	            6.464491	            0.254898	           30.917852	          267.562582	            0.001579	           -0.163685	            0.000000	            0.262592	           -0.066725	           -0.577433	           -0.000003	           21.187248	            2.020204	            0.271339	            0.375859	            1.311121	            1.913958	           -0.104883	           -0.010001	           -0.001343	          -17.237490	           -0.772695	            1.743447	           -0.265023	            1.309978	            1.924868	            0.001575	            0.000071	           -0.000159
            1.475500	          -25.685414	          296.344323	           11.562850	            0.095498	            0.000000	            0.262187	           -0.559030	            6.449782	            0.251659	           30.899638	          266.759442	           -0.001880	           -0.163674	            0.000000	            0.262566	           -0.066517	           -0.574248	            0.000004	           21.171278	            2.022121	            0.271108	            0.375863	            1.311123	            1.913958	           -0.105062	           -0.010035	           -0.001345	          -17.232103	           -0.787766	            1.735989	           -0.265020	            1.309977	            1.924868	            0.001763	            0.000081	           -0.000178
            1.476000	          -25.798686	          295.590757	           11.408139	            0.095528	            0.000000	            0.262189	           -0.561646	            6.435111	            0.248359	           30.880717	          265.955926	           -0.005314	           -0.163662	            0.000000	            0.262540	           -0.066305	           -0.571044	            0.000011	           21.155349	            2.023908	            0.272126	            0.375867	            1.311125	            1.913958	           -0.105260	           -0.010070	           -0.001354	          -17.228832	           -0.801415	            1.727234	           -0.265018	            1.309977	            1.924868	            0.001944	            0.000090	           -0.000195
